<svg xmlns="http://www.w3.org/2000/svg" viewBox="22 22 212 212">
<g transform="translate(0,256) scale(0.1,-0.1)" fill="#EBF212" stroke="none">
<path d="M1115 2308 c-33 -5 -64 -13 -68 -17 -4 -4 44 -171 108 -371 63 -200
115 -369 115 -377 0 -7 -11 -19 -25 -25 -22 -10 -29 -8 -53 14 -499 463 -584
538 -602 528 -50 -27 -209 -233 -189 -246 6 -3 180 -96 387 -206 420 -223 436
-229 512 -187 80 45 80 43 80 499 l0 400 -102 -1 c-57 -1 -130 -6 -163 -11z"/>
<path d="M1722 1982 c-347 -654 -325 -609 -320 -661 6 -56 36 -104 81 -129 29
-15 71 -17 432 -17 l400 0 3 85 c3 84 -14 246 -27 254 -3 2 -167 -47 -365
-110 -197 -63 -366 -114 -376 -114 -22 0 -43 24 -38 43 2 8 127 148 278 312
151 163 277 301 278 306 6 14 -117 131 -186 178 l-60 41 -100 -188z"/>
<path d="M240 1289 c0 -92 16 -228 29 -242 4 -4 171 45 371 108 199 64 371
113 381 110 21 -7 32 -32 22 -50 -5 -8 -129 -145 -278 -305 -148 -161 -272
-297 -273 -301 -6 -14 118 -131 186 -178 l60 -41 209 393 c193 364 208 396
208 444 0 58 -20 93 -75 131 -33 22 -34 22 -436 22 l-404 0 0 -91z"/>
<path d="M1275 1146 c-43 -19 -81 -65 -94 -111 -12 -45 -14 -292 -4 -593 l6
-202 101 1 c56 1 130 6 166 13 57 10 65 14 61 31 -1 11 -52 174 -112 363 -60
188 -109 351 -109 362 0 21 28 40 48 32 8 -2 147 -128 310 -278 164 -151 301
-274 306 -274 15 0 133 126 174 188 l41 59 -377 199 c-207 109 -390 204 -406
211 -41 15 -75 15 -111 -1z"/>
</g>
</svg>
