<svg viewBox="47.7 48.6 84.6 84.6" fill="none" xmlns="http://www.w3.org/2000/svg">
<path d="M85.0826 49.1346H127.061C129.67 49.1346 131.785 51.2499 131.785 53.8593V60.4815C131.785 63.0909 129.67 65.2062 127.061 65.2062H85.0826C82.4732 65.2062 80.3579 63.0909 80.3579 60.4815V53.8593C80.3579 51.2499 82.4732 49.1346 85.0826 49.1346Z" fill="#316BFF"/>
<path d="M85.0826 82.8879H119.562C122.171 82.8879 124.286 85.0032 124.286 87.6126V94.2348C124.286 96.8442 122.171 98.9595 119.562 98.9595H85.0826C82.4732 98.9595 80.3579 96.8442 80.3579 94.2348V87.6126C80.3579 85.0032 82.4732 82.8879 85.0826 82.8879Z" fill="#316BFF"/>
<path d="M131.785 121.358V127.981C131.785 130.589 129.669 132.705 127.061 132.705H66.7205C56.7873 132.07 48.8497 124.133 48.2147 114.199V53.8593C48.2147 51.2513 50.3314 49.1346 52.9395 49.1346H59.5616C62.1697 49.1346 64.2863 51.2513 64.2863 53.8593V104.349C64.2863 111.138 69.7821 116.634 76.5706 116.634H127.061C129.669 116.634 131.785 118.75 131.785 121.358Z" fill="#316BFF"/>
</svg>