<?xml version="1.0" encoding="UTF-8"?>
<svg id="a" xmlns="http://www.w3.org/2000/svg" version="1.1" viewBox="67.3 71.3 377.4 369.3">
  <defs>
    <style>
      .cls-1 {
        fill: #02cd9f;
      }

      .cls-1, .cls-2 {
        stroke-width: 0px;
      }

      .cls-2 {
        fill: #009068;
      }
    </style>
  </defs>
  <path class="cls-2" d="M444,321.28c.56,10.24,1.68,52.8-28.48,83.84-1.04,1.04-2,2.08-3.04,3.04-15.04,14.08-31.92,20.56-40.48,23.68-18.48,6.88-35.28,8.4-47.44,8.32l-1.04-1.36c6.88-1.44,17.12-5.28,24.48-14.96,6.4-8.32,7.68-17.2,8-21.36V114.4c0-23.52,19.36-42.56,43.2-42.56h1.6c23.84,0,43.2,19.04,43.2,42.56v206.88Z"/>
  <path class="cls-1" d="M356,335.2v67.28c-.32,4.16-1.6,13.04-8,21.36-7.36,9.68-17.6,13.52-24.48,14.96l-78.24-101.12,32.56-56.32c2.48-4.24,5.68-7.76,9.36-10.56s7.84-4.8,12.24-6c.56-.16,1.12-.32,1.76-.32l54.8,70.72Z"/>
  <path class="cls-2" d="M295.12,256.56l6.08,7.92c-.64,0-1.2.16-1.76.32-4.4,1.2-8.56,3.2-12.24,6s-6.88,6.32-9.36,10.56l-32.56,56.32-58.16,100.8c-6.88-1.68-16.24-5.6-23.12-14.64-6.4-8.32-7.68-17.2-8-21.36v-88.32l17.68-30.64c2.88-4.96,6.24-9.6,9.84-13.76,5.12-6,11.04-11.2,17.36-15.52,8.4-5.6,17.6-9.84,27.2-12.4,10.32-2.72,21.12-3.68,31.84-2.56h.72c5.12.56,10.16,1.6,15.2,3.04.08,0,.16.08.24.08,7.28,2.8,13.92,7.52,19.04,14.16Z"/>
  <path class="cls-1" d="M187.12,438.48l-.96,1.68c-12.08-.08-28.32-1.68-46.16-8.32-9.12-3.36-27.76-10.48-43.52-26.72-30.16-31.04-29.04-73.6-28.48-83.84V114.4c0-23.52,19.36-42.56,43.2-42.56h1.6c23.84,0,43.2,19.04,43.2,42.56v288.08c.32,4.16,1.6,13.04,8,21.36,6.88,9.04,16.24,12.96,23.12,14.64h0Z"/>
</svg>